<svg width="0" height="0" class="hidden">
  <symbol xmlns="http://www.w3.org/2000/svg" stroke-width="2" stroke="currentColor" fill="none" stroke-linecap="round" stroke-linejoin="round" viewBox="0 0 24 24" id="clipboard-list">
    <path stroke="none" d="M0 0h24v24H0z" fill="none"></path>
    <path d="M9 5h-2a2 2 0 0 0 -2 2v12a2 2 0 0 0 2 2h10a2 2 0 0 0 2 -2v-12a2 2 0 0 0 -2 -2h-2"></path>
    <rect x="9" y="3" width="6" height="4" rx="2"></rect>
    <line x1="9" y1="12" x2="9.01" y2="12"></line>
    <line x1="13" y1="12" x2="15" y2="12"></line>
    <line x1="9" y1="16" x2="9.01" y2="16"></line>
    <line x1="13" y1="16" x2="15" y2="16"></line>
  </symbol>
  <symbol xmlns="http://www.w3.org/2000/svg" stroke-width="2" stroke="currentColor" fill="none" stroke-linecap="round" stroke-linejoin="round" viewBox="0 0 24 24" id="home">
    <path stroke="none" d="M0 0h24v24H0z" fill="none"></path>
    <polyline points="5 12 3 12 12 3 21 12 19 12"></polyline>
    <path d="M5 12v7a2 2 0 0 0 2 2h10a2 2 0 0 0 2 -2v-7"></path>
    <path d="M9 21v-6a2 2 0 0 1 2 -2h2a2 2 0 0 1 2 2v6"></path>
  </symbol>
  <symbol xmlns="http://www.w3.org/2000/svg" stroke-width="2" stroke="currentColor" fill="none" stroke-linecap="round" stroke-linejoin="round" viewBox="0 0 24 24" id="school">
    <path stroke="none" d="M0 0h24v24H0z" fill="none"></path>
    <path d="M22 9l-10 -4l-10 4l10 4l10 -4v6"></path>
    <path d="M6 10.6v5.4a6 3 0 0 0 12 0v-5.4"></path>
  </symbol>
  <symbol xmlns="http://www.w3.org/2000/svg" stroke-width="2" stroke="currentColor" fill="none" stroke-linecap="round" stroke-linejoin="round" viewBox="0 0 24 24" id="users">
    <path stroke="none" d="M0 0h24v24H0z" fill="none"></path>
    <circle cx="9" cy="7" r="4"></circle>
    <path d="M3 21v-2a4 4 0 0 1 4 -4h4a4 4 0 0 1 4 4v2"></path>
    <path d="M16 3.13a4 4 0 0 1 0 7.75"></path>
    <path d="M21 21v-2a4 4 0 0 0 -3 -3.85"></path>
  </symbol>
</svg>